# xmcd
# Track frame offsets:
# 202
# 15017
# 35405
# 52192
# 67355
# 86972
# 96842
# 111490
# 130787
# 154382
# 166545
# 179295
# 193305
# 211562
# 222900
# 239850
# 250685
# 262557
#
# Disc length: 3737 seconds
# Revision: 0
# Processed by: cddbd v1.4PL0 Copyright (c) Steve Scherf et al.
# Submitted via: VisiTrax 2.9.5.180 - For more info visit www.synapsa.com
#
DISCID=fe0e9712
DTITLE=Louise Morrissey - Reflections
DYEAR=1900
DGENRE=Irsk
TTITLE0=You never can tell
TTITLE1=Silver threads among the gold
TTITLE2=Grandpa
TTITLE3=Achey breaky heart
TTITLE4=The Isle of Innisfree
TTITLE5=If you should come back
TTITLE6=Sailor
TTITLE7=An irish harvest day
TTITLE8=The gift
TTITLE9=What part of no
TTITLE10=The old rugged cross
TTITLE11=The carroll county accident
TTITLE12=Nobody's child
TTITLE13=Every second, evry minute
TTITLE14=Blue rose is
TTITLE15=If I could only start over
TTITLE16=Ramblin' rose
TTITLE17=Sweet bantry bay
EXTD=
EXTT0=
EXTT1=
EXTT2=
EXTT3=
EXTT4=
EXTT5=
EXTT6=
EXTT7=
EXTT8=
EXTT9=
EXTT10=
EXTT11=
EXTT12=
EXTT13=
EXTT14=
EXTT15=
EXTT16=
EXTT17=
PLAYORDER=
